<?xml version="1.0" standalone="no"?>
<!DOCTYPE svg PUBLIC "-//W3C//DTD SVG 20010904//EN"
 "http://www.w3.org/TR/2001/REC-SVG-20010904/DTD/svg10.dtd">
<svg version="1.0" xmlns="http://www.w3.org/2000/svg"
 width="700.000000pt" height="700.000000pt" viewBox="0 0 700.000000 700.000000"
 preserveAspectRatio="xMidYMid meet">
<metadata>
Created by potrace 1.14, written by Peter Selinger 2001-2017
</metadata>
<g transform="translate(0.000000,700.000000) scale(0.100000,-0.100000)"
fill="#000000" stroke="none">
<path d="M3485 6991 c-96 -25 -173 -88 -215 -177 -33 -68 -44 -153 -29 -208 5
-16 7 -31 5 -33 -2 -2 -25 -6 -51 -10 -43 -5 -47 -4 -41 12 17 44 17 116 1
164 -74 224 -362 264 -490 67 -25 -37 -42 -115 -38 -167 l4 -47 -43 1 c-98 2
-169 -29 -229 -102 l-33 -39 -41 23 c-106 59 -244 50 -343 -23 -96 -69 -137
-150 -135 -267 1 -98 23 -155 87 -223 l46 -49 -71 -71 -72 -71 -43 31 c-177
127 -425 7 -428 -208 l-1 -61 -70 3 c-58 2 -80 -2 -122 -23 -139 -65 -197
-229 -130 -365 l24 -49 -27 -14 c-16 -8 -38 -35 -51 -62 -21 -43 -24 -62 -24
-173 1 -111 8 -235 20 -355 2 -22 7 -78 11 -125 12 -166 23 -309 29 -385 3
-27 7 -84 10 -125 3 -41 7 -97 10 -125 2 -27 7 -86 10 -130 3 -44 8 -102 10
-130 3 -27 7 -84 10 -125 3 -41 8 -100 10 -130 11 -132 15 -180 20 -255 4 -44
8 -99 10 -121 2 -23 7 -81 10 -130 3 -49 8 -109 10 -134 2 -25 7 -81 10 -125
4 -44 8 -100 11 -125 2 -25 6 -83 9 -130 3 -47 7 -98 9 -115 3 -16 7 -75 11
-130 4 -55 8 -120 11 -145 2 -25 6 -74 9 -110 22 -291 22 -294 46 -369 43
-136 117 -244 224 -327 36 -27 340 -207 575 -340 47 -26 118 -67 158 -91 40
-24 75 -43 77 -43 2 0 75 -42 162 -94 454 -269 686 -395 758 -413 74 -18 111
-21 195 -18 178 6 165 -1 1090 538 47 27 113 66 148 86 35 20 71 41 80 46 9 6
49 28 87 49 81 46 385 221 595 344 188 110 214 128 281 198 83 88 147 212 164
316 13 81 14 93 20 188 3 52 8 115 10 140 5 47 10 117 20 255 3 44 8 96 10
115 2 19 7 78 10 130 4 52 8 111 10 130 2 19 6 76 10 125 3 50 8 110 10 135 2
25 7 79 10 120 3 41 8 102 10 135 3 33 7 92 10 130 3 39 8 95 10 125 3 30 7
89 10 130 3 41 8 95 10 120 4 44 15 182 20 250 1 19 5 73 9 120 4 47 9 114 11
150 2 36 7 94 10 130 3 36 7 88 9 115 7 89 18 219 21 255 2 19 6 82 10 140 4
58 9 114 11 125 3 11 6 79 8 150 4 152 -9 209 -57 258 l-33 32 17 45 c62 168
-65 357 -243 361 -61 2 -119 -14 -160 -43 -24 -17 -28 -17 -28 -3 0 9 -9 33
-20 55 -51 101 -132 153 -246 159 -18 1 -23 9 -28 53 -9 67 -59 161 -105 197
-78 62 -119 76 -217 76 l-91 0 5 71 c4 62 1 79 -21 125 -14 30 -36 65 -49 79
-59 65 -161 98 -244 80 l-31 -7 -2 61 c-3 157 -136 277 -291 263 -31 -3 -74
-13 -94 -22 -50 -24 -110 -85 -132 -134 -15 -35 -22 -41 -43 -37 -15 2 -36 5
-47 5 -17 1 -22 9 -27 46 -15 106 -96 214 -194 257 -49 21 -160 32 -208 19z"/>
</g>
</svg>
